<?xml version="1.0" standalone="no"?>
<!DOCTYPE svg PUBLIC "-//W3C//DTD SVG 20010904//EN"
 "http://www.w3.org/TR/2001/REC-SVG-20010904/DTD/svg10.dtd">
<svg version="1.0" xmlns="http://www.w3.org/2000/svg"
 width="200.000000pt" height="200.000000pt" viewBox="0 0 200.000000 200.000000"
 preserveAspectRatio="xMidYMid meet">
<metadata>
Created by potrace 1.14, written by Peter Selinger 2001-2017
</metadata>
<g transform="translate(0.000000,200.000000) scale(0.100000,-0.100000)"
fill="#000000" stroke="none">
<path d="M530 1793 c-38 -13 -51 -60 -24 -87 32 -32 80 -15 89 32 5 29 -37 64
-65 55z"/>
<path d="M631 1776 c-17 -20 -10 -67 11 -80 28 -17 72 4 76 37 4 36 -13 57
-48 57 -15 0 -33 -6 -39 -14z"/>
<path d="M1738 1624 c-27 -8 -48 -17 -48 -19 0 -3 9 -37 19 -75 29 -104 16
-140 -49 -140 -57 0 -70 24 -57 103 7 35 6 37 -21 37 -15 0 -37 3 -49 6 -19 5
-22 0 -33 -51 -14 -66 -38 -95 -79 -95 -46 0 -63 24 -56 80 6 43 4 48 -17 54
-13 3 -35 6 -49 6 -23 0 -27 -6 -38 -52 -16 -72 -33 -88 -92 -88 l-47 0 -7 43
c-21 132 -135 196 -225 125 -59 -47 -91 -160 -61 -216 15 -28 59 -51 105 -54
68 -4 33 -32 -67 -52 -60 -12 -62 -14 -59 -41 6 -49 21 -75 41 -75 10 0 48 9
83 20 71 22 138 72 157 118 10 24 17 28 46 27 56 -3 136 13 156 30 16 16 20
15 48 -6 43 -32 139 -31 183 1 17 13 33 18 37 13 24 -37 142 -49 198 -19 70
36 88 102 62 231 -10 48 -22 91 -26 95 -4 4 -29 1 -55 -6z m-748 -164 c22 -22
27 -66 8 -72 -25 -9 -68 5 -74 24 -6 20 19 68 36 68 6 0 19 -9 30 -20z"/>
<path d="M577 1623 c-57 -9 -127 -108 -127 -180 0 -73 55 -118 136 -111 29 2
44 -1 44 -9 0 -20 -50 -52 -93 -58 -169 -24 -243 8 -241 106 1 27 7 56 14 64
16 19 8 29 -42 50 l-37 15 -16 -30 c-9 -17 -18 -49 -21 -73 -3 -23 -7 -51 -9
-62 -5 -35 22 -95 56 -126 60 -54 168 -71 294 -48 106 19 174 70 200 149 58
174 -22 332 -158 313z m58 -133 c20 -39 20 -43 -2 -51 -62 -25 -99 18 -60 69
17 21 46 13 62 -18z"/>
<path d="M178 793 c-25 -29 -5 -83 31 -83 29 0 60 29 56 51 -10 48 -57 66 -87
32z"/>
<path d="M314 802 c-6 -4 -15 -17 -19 -30 -13 -44 50 -83 83 -50 15 15 15 61
0 76 -13 13 -47 16 -64 4z"/>
<path d="M1515 678 c14 -324 13 -328 -52 -328 -50 0 -79 19 -116 74 -19 28
-58 77 -87 109 l-52 57 98 46 c55 26 101 48 103 50 8 7 -32 84 -43 84 -23 0
-214 -100 -244 -128 -48 -45 -43 -70 31 -144 130 -129 127 -148 -27 -148 -130
0 -139 6 -135 82 4 55 3 57 -25 62 -60 12 -64 10 -76 -50 -15 -72 -37 -94 -95
-94 -44 0 -85 27 -85 56 0 9 -37 109 -45 122 -5 6 -95 -38 -95 -47 0 -5 9 -28
20 -52 22 -50 26 -110 8 -142 -17 -33 -68 -75 -115 -94 -24 -10 -43 -24 -43
-31 0 -11 26 -69 35 -80 2 -2 28 9 59 24 71 35 126 81 151 128 14 25 24 34 35
30 60 -25 145 -18 193 16 15 12 27 17 27 12 0 -4 14 -16 31 -26 26 -15 53 -19
143 -19 112 0 174 12 196 38 10 12 16 11 40 -7 54 -39 169 -41 228 -2 48 31
54 69 46 273 -3 102 -7 197 -8 211 -2 23 -7 25 -54 28 l-52 3 5 -113z"/>
<path d="M1716 563 c3 -126 7 -247 7 -270 l0 -43 52 0 53 0 -4 138 c-3 75 -6
184 -8 242 -3 58 -5 117 -5 133 -1 26 -3 27 -51 27 l-51 0 7 -227z"/>
<path d="M220 610 c-25 -31 -30 -44 -21 -54 9 -11 6 -20 -13 -43 -64 -76 -72
-172 -17 -226 26 -27 39 -31 93 -35 107 -6 168 48 168 147 0 61 -30 118 -93
177 -87 82 -81 80 -117 34z m111 -187 c1 -7 2 -19 3 -25 6 -38 -53 -61 -89
-35 -23 18 -14 73 17 107 l22 23 23 -29 c12 -16 23 -35 24 -41z"/>
<path d="M886 164 c-32 -31 -8 -84 38 -84 30 0 46 18 46 52 0 43 -53 64 -84
32z"/>
</g>
</svg>
