<?xml version="1.0" encoding="UTF-8"?>
<svg version="1.1" xmlns="http://www.w3.org/2000/svg" width="387" height="93">
<path d="M0 0 C127.71 0 255.42 0 387 0 C387 30.69 387 61.38 387 93 C259.29 93 131.58 93 0 93 C0 62.31 0 31.62 0 0 Z " fill="#FDFEFE" transform="translate(0,0)"/>
<path d="M0 0 C3.63 0 7.26 0 11 0 C11.38779898 7.99835398 11.72136179 15.99708724 12 24 C12.03689941 25.02335449 12.07379883 26.04670898 12.11181641 27.10107422 C12.20329212 29.9424505 12.26350646 32.78260904 12.3125 35.625 C12.34214844 36.48182373 12.37179688 37.33864746 12.40234375 38.22143555 C12.45416162 43.62182953 11.77166517 46.83428026 8 51 C1.76150672 55.09265925 -4.78504216 54.79423059 -12 54 C-14.83820032 52.96097579 -16.57445793 51.84803205 -19 50 C-19.598125 50.474375 -20.19625 50.94875 -20.8125 51.4375 C-26.1105575 55.22182679 -32.57041708 54.26169629 -38.8125 54.3125 C-40.5769043 54.35600586 -40.5769043 54.35600586 -42.37695312 54.40039062 C-48.85460027 54.44799346 -53.10368297 54.45679127 -58 50 C-58.8971875 50.7115625 -58.8971875 50.7115625 -59.8125 51.4375 C-63.5024343 54.07316736 -66.52557774 54.1359071 -70.9375 54.125 C-71.97777344 54.12757812 -73.01804688 54.13015625 -74.08984375 54.1328125 C-76.57665971 54.01932023 -78.63092407 53.71928571 -81 53 C-81.515625 54.03125 -82.03125 55.0625 -82.5625 56.125 C-87.27331406 64.23806866 -94.55607987 67.54913933 -103 71 C-105.70705488 67.6615409 -106.51178906 65.29625631 -107 61 C-106.33613281 60.69707031 -105.67226562 60.39414063 -104.98828125 60.08203125 C-96.60106678 56.14524106 -96.60106678 56.14524106 -91 49 C-90.32200948 42.10275024 -91.41007253 36.38232127 -94 30 C-92.71086513 29.32845067 -91.41859796 28.66291141 -90.125 28 C-89.40570313 27.62875 -88.68640625 27.2575 -87.9453125 26.875 C-86 26 -86 26 -84 26 C-83.59007813 27.14339844 -83.18015625 28.28679688 -82.7578125 29.46484375 C-82.21391748 30.95586631 -81.66962611 32.44674433 -81.125 33.9375 C-80.85558594 34.69224609 -80.58617188 35.44699219 -80.30859375 36.22460938 C-79.08380586 40.35097092 -79.08380586 40.35097092 -76 43 C-73.89145964 43.2352732 -73.89145964 43.2352732 -71.5625 43.25 C-70.78003906 43.27578125 -69.99757812 43.3015625 -69.19140625 43.328125 C-66.96738699 43.15949941 -66.96738699 43.15949941 -65.3203125 41.83984375 C-63.59191849 39.43134204 -63.02182326 37.18357034 -62.3125 34.3125 C-61.93544922 32.82169922 -61.93544922 32.82169922 -61.55078125 31.30078125 C-61.36902344 30.54152344 -61.18726563 29.78226563 -61 29 C-58.03 29.33 -55.06 29.66 -52 30 C-51.95101562 30.85464844 -51.90203125 31.70929687 -51.8515625 32.58984375 C-51.77679688 33.69457031 -51.70203125 34.79929688 -51.625 35.9375 C-51.52058594 37.59072266 -51.52058594 37.59072266 -51.4140625 39.27734375 C-51.20910156 40.62505859 -51.20910156 40.62505859 -51 42 C-48.44276771 43.27861615 -46.63262898 43.11336609 -43.7734375 43.09765625 C-42.7421875 43.09443359 -41.7109375 43.09121094 -40.6484375 43.08789062 C-39.02808594 43.07532227 -39.02808594 43.07532227 -37.375 43.0625 C-36.28703125 43.05798828 -35.1990625 43.05347656 -34.078125 43.04882812 C-31.38536211 43.03701776 -28.69270812 43.02054778 -26 43 C-27.54420089 38.86720699 -29.29455543 36.24619248 -32.3125 33 C-33.11171875 32.12859375 -33.9109375 31.2571875 -34.734375 30.359375 C-36.46057076 28.56175045 -38.20034777 26.89811175 -40.0625 25.25 C-42 23 -42 23 -42.6875 20 C-41.75030236 15.91041028 -39.27656205 14.33316674 -36 12 C-33.53695784 10.48453617 -31.0082444 9.13526016 -28.4375 7.8125 C-27.79103516 7.47025391 -27.14457031 7.12800781 -26.47851562 6.77539062 C-17.36354672 2 -17.36354672 2 -13 2 C-10 7.625 -10 7.625 -10 11 C-16.27 13.97 -22.54 16.94 -29 20 C-27.02 22.31 -25.04 24.62 -23 27 C-21.41819232 29.0687118 -19.85425872 31.15127085 -18.3125 33.25 C-14.39550953 38.93410597 -14.39550953 38.93410597 -9 43 C-7.29297265 43.06996014 -5.58331997 43.08440154 -3.875 43.0625 C-2.96492188 43.05347656 -2.05484375 43.04445312 -1.1171875 43.03515625 C-0.41851562 43.02355469 0.28015625 43.01195312 1 43 C0.96970703 42.23034912 0.93941406 41.46069824 0.90820312 40.66772461 C-0.19008061 12.41859974 -0.19008061 12.41859974 0 0 Z " fill="#5674FF" transform="translate(154,7)"/>
<path d="M0 0 C2.97589091 8.67968181 4.97577052 18.31363535 2.30859375 27.33984375 C0.87988119 30.16737949 -0.97715437 31.98184066 -3.4375 33.9375 C-8.8654055 35.55634901 -14.38582143 35.73985299 -20 35 C-22.3984375 33.4765625 -22.3984375 33.4765625 -24 32 C-24.61875 32.309375 -25.2375 32.61875 -25.875 32.9375 C-29.82482354 34.91241177 -32.37882138 35.19391461 -36.875 35.25 C-38.10992187 35.27578125 -39.34484375 35.3015625 -40.6171875 35.328125 C-44.14948054 34.98550073 -45.4765715 34.40930359 -48 32 C-48.57363281 32.30808594 -49.14726562 32.61617187 -49.73828125 32.93359375 C-51.91863004 33.96163386 -53.8387029 34.55338005 -56.1875 35.0625 C-56.96867187 35.23394531 -57.74984375 35.40539063 -58.5546875 35.58203125 C-60.99250015 35.99871808 -63.34466117 36.1319021 -65.8125 36.25 C-68.04278546 36.40474316 -68.04278546 36.40474316 -70 37 C-72.16682624 39.70751892 -72.16682624 39.70751892 -74 43 C-80.05563954 48.92740247 -87.21113097 51.75229988 -95.625 52.1875 C-96.40875 52.125625 -97.1925 52.06375 -98 52 C-98.99 46.555 -98.99 46.555 -100 41 C-98.288125 40.71125 -96.57625 40.4225 -94.8125 40.125 C-90.958386 39.47490848 -87.58721171 38.56079778 -84 37 C-84.75925781 36.75765625 -85.51851563 36.5153125 -86.30078125 36.265625 C-87.29464844 35.93046875 -88.28851563 35.5953125 -89.3125 35.25 C-90.29863281 34.92515625 -91.28476562 34.6003125 -92.30078125 34.265625 C-95.31274311 32.85335924 -96.44616938 31.92057796 -98 29 C-98.94112088 22.89194097 -98.59437493 17.1519374 -95 12 C-92.02698284 7.95974591 -89.49864198 5.71225052 -84.4375 4.9375 C-80.40057364 4.76168746 -78.13675644 5.29890417 -75 8 C-70.76036359 12.53542499 -68.11184172 16.03619444 -67.875 22.3125 C-67.91625 23.199375 -67.9575 24.08625 -68 25 C-66.56163249 24.88541307 -65.12429034 24.75790884 -63.6875 24.625 C-62.88699219 24.55539063 -62.08648437 24.48578125 -61.26171875 24.4140625 C-58.72775559 24.10435574 -58.72775559 24.10435574 -56 22 C-54.98247445 19.35952748 -54.98247445 19.35952748 -54.3125 16.375 C-53.93544922 14.87066406 -53.93544922 14.87066406 -53.55078125 13.3359375 C-53.36902344 12.56507812 -53.18726563 11.79421875 -53 11 C-46.375 10.875 -46.375 10.875 -43 12 C-43.01160156 12.78246094 -43.02320313 13.56492187 -43.03515625 14.37109375 C-43.04417969 15.38300781 -43.05320312 16.39492188 -43.0625 17.4375 C-43.07410156 18.44683594 -43.08570313 19.45617187 -43.09765625 20.49609375 C-43.28612676 22.94021067 -43.28612676 22.94021067 -42 24 C-37.44200863 24.50861154 -37.44200863 24.50861154 -33.37890625 22.83984375 C-31.57872554 20.43790292 -31.03040681 18.21831329 -30.3125 15.3125 C-30.06113281 14.31863281 -29.80976563 13.32476562 -29.55078125 12.30078125 C-29.36902344 11.54152344 -29.18726563 10.78226563 -29 10 C-24.05 10.495 -24.05 10.495 -19 11 C-19.01160156 11.85464844 -19.02320313 12.70929687 -19.03515625 13.58984375 C-19.04417969 14.69457031 -19.05320312 15.79929687 -19.0625 16.9375 C-19.07410156 18.03964844 -19.08570313 19.14179687 -19.09765625 20.27734375 C-19.31262571 22.91447634 -19.31262571 22.91447634 -18 24 C-12.67326964 24.33856828 -12.67326964 24.33856828 -8 22 C-8.51553879 15.50149789 -9.46667709 9.33773468 -11 3 C-9.73160474 2.49384702 -8.46016898 1.99530901 -7.1875 1.5 C-6.47980469 1.2215625 -5.77210938 0.943125 -5.04296875 0.65625 C-3 0 -3 0 0 0 Z " fill="#81DA5B" transform="translate(372,26)"/>
<path d="M0 0 C4.76621461 2.26779566 7.04408039 6.2546723 9 11 C9.33850493 13.85472493 9.52481258 16.40355177 9.5 19.25 C9.49500488 19.99926758 9.49000977 20.74853516 9.48486328 21.52050781 C9.25953479 28.71547965 7.36018923 34.10975275 2.61328125 39.60546875 C-5.40869486 47.09997245 -16.96041929 47.36236913 -27.29296875 47.28125 C-33.8091116 46.78687457 -38.01991579 44.68517805 -42.9375 40.5 C-48.12543289 34.2115965 -47.60783099 27.91061203 -47 20 C-46.26360343 17.06292696 -45.31653783 14.74278715 -44 12 C-40.7 12.99 -37.4 13.98 -34 15 C-34.495 16.794375 -34.495 16.794375 -35 18.625 C-35.87015057 22.20018388 -36.49240474 25.30696442 -36 29 C-33.84909549 32.33761045 -32.79587201 33.73470933 -29 35 C-26.23628995 35.1490798 -23.5143758 35.23109829 -20.75 35.25 C-20.01136719 35.270625 -19.27273437 35.29125 -18.51171875 35.3125 C-13.2645187 35.34951728 -9.63247094 34.51611366 -5 32 C-4.34 31.01 -3.68 30.02 -3 29 C-3.99580078 29.05220703 -3.99580078 29.05220703 -5.01171875 29.10546875 C-14.14748516 29.38554334 -14.14748516 29.38554334 -18 26 C-20.83633254 22.57684004 -21.54093163 19.57092447 -21.34765625 15.1171875 C-20.47711379 9.81568173 -17.87453781 6.02384914 -14.4375 2 C-9.59406705 -0.81799735 -5.47568768 -1.01039475 0 0 Z " fill="#81DA5C" transform="translate(258,28)"/>
<path d="M0 0 C7.5485696 4.52914176 14.63866127 10.73670896 18 19 C18.74517206 24.23949103 18.79705348 29.19659982 16.375 34 C13.63477379 37.46133838 12.21841019 38.69612776 8 40 C3.028996 40.5190313 -1.37388104 40.71142704 -6 38.6875 C-9.58618444 35.66165688 -11.5998014 33.89858128 -12.2734375 29.01953125 C-12.52738502 23.50105625 -11.50590993 20.31087438 -8.2890625 15.82421875 C-5.78553428 12.28134699 -5 10.45631224 -5 6 C-3.55713083 3.75324658 -1.80620014 1.98682015 0 0 Z " fill="#5674FF" transform="translate(28,21)"/>
<path d="M0 0 C3.3 0 6.6 0 10 0 C10.28820034 5.92228714 10.57289668 11.84472911 10.85449219 17.76733398 C10.95055851 19.77779573 11.0475452 21.78821374 11.14550781 23.79858398 C11.2869894 26.70545322 11.42504627 29.61246909 11.5625 32.51953125 C11.60624756 33.40332962 11.64999512 34.28712799 11.69506836 35.19770813 C11.9871315 41.47100556 12.03544358 47.71984125 12 54 C8.37 54 4.74 54 1 54 C-0.19388403 17.53573348 -0.19388403 17.53573348 0 0 Z " fill="#5675FF" transform="translate(174,7)"/>
<path d="M0 0 C3.16115776 1.36983503 3.9927092 1.9890638 6 5 C6.25 8.5625 6.25 8.5625 6 12 C5.34 12.66 4.68 13.32 4 14 C-2.57692308 13.42307692 -2.57692308 13.42307692 -4 12 C-4.61317388 6.72670463 -3.16733542 4.15712774 0 0 Z " fill="#F5F6FF" transform="translate(30,37)"/>
<path d="M0 0 C3 0.25 3 0.25 5 2.25 C5.25 5.25 5.25 5.25 5 8.25 C3 10.25 3 10.25 0 10.5 C-3 10.25 -3 10.25 -5 8.25 C-5.25 5.25 -5.25 5.25 -5 2.25 C-3 0.25 -3 0.25 0 0 Z " fill="#85DB60" transform="translate(259,10.75)"/>
<path d="M0 0 C3.0625 0.1875 3.0625 0.1875 5.0625 2.1875 C5.3125 5.1875 5.3125 5.1875 5.0625 8.1875 C3.0625 10.1875 3.0625 10.1875 0.0625 10.4375 C-2.9375 10.1875 -2.9375 10.1875 -4.9375 8.1875 C-4.24305556 0.27083333 -4.24305556 0.27083333 0 0 Z " fill="#5C79FF" transform="translate(94.9375,67.8125)"/>
<path d="M0 0 C3 0.25 3 0.25 5 2.25 C5.25 5.25 5.25 5.25 5 8.25 C3 10.25 3 10.25 0.5625 10.5625 C-2 10.25 -2 10.25 -3.8125 9.0625 C-5.40199375 6.6364306 -5.36487512 5.09602594 -5 2.25 C-3 0.25 -3 0.25 0 0 Z " fill="#83DA5E" transform="translate(246,10.75)"/>
<path d="M0 0 C2.5 0.25 2.5 0.25 4.5 2.25 C4.75 5.25 4.75 5.25 4.5 8.25 C2.5 10.25 2.5 10.25 0.0625 10.5625 C-2.5 10.25 -2.5 10.25 -4.375 9.0625 C-5.5 7.25 -5.5 7.25 -5.3125 4.6875 C-4.22827241 1.43481722 -3.47807945 0.34780795 0 0 Z " fill="#5977FF" transform="translate(37.5,4.75)"/>
<path d="M0 0 C2.5 0.25 2.5 0.25 4.5 2.25 C4.75 5.25 4.75 5.25 4.5 8.25 C2.5 10.25 2.5 10.25 0.0625 10.5625 C-2.5 10.25 -2.5 10.25 -4.375 9.0625 C-5.5 7.25 -5.5 7.25 -5.3125 4.6875 C-4.22827241 1.43481722 -3.47807945 0.34780795 0 0 Z " fill="#5A78FF" transform="translate(24.5,4.75)"/>
<path d="M0 0 C1.9375 0.875 1.9375 0.875 3.9375 3.875 C4.0625 6.5625 4.0625 6.5625 3.9375 8.875 C-2.21484375 8.97265625 -2.21484375 8.97265625 -4.0625 8.875 C-5.0625 7.875 -5.0625 7.875 -5.3125 5.5 C-5.0625 2.875 -5.0625 2.875 -3.8125 1 C-2.0625 -0.125 -2.0625 -0.125 0 0 Z " fill="#F5FCF2" transform="translate(289.0625,42.125)"/>
<path d="M0 0 C4.55555556 0.55555556 4.55555556 0.55555556 6 2 C6.125 5 6.125 5 6 8 C5.67 8.33 5.34 8.66 5 9 C2.66055264 8.71269945 0.3260857 8.38063221 -2 8 C-2.125 5.125 -2.125 5.125 -2 2 C-1.34 1.34 -0.68 0.68 0 0 Z " fill="#F8FDF6" transform="translate(250,38)"/>
</svg>
