<?xml version="1.0" encoding="UTF-8"?>
<svg version="1.1" xmlns="http://www.w3.org/2000/svg" width="387" height="93">
<path d="M0 0 C3.96 0 7.92 0 12 0 C12.72406009 5.32847299 13.20508724 10.59592601 13.38671875 15.97265625 C13.41224319 16.69940048 13.43776764 17.42614471 13.46406555 18.1749115 C13.51565382 19.69832531 13.56512506 21.22181219 13.61254883 22.74536133 C13.6874375 25.06056766 13.77816435 27.37483042 13.86914062 29.68945312 C13.91764442 31.179656 13.96520253 32.66989001 14.01171875 34.16015625 C14.04077805 34.84263931 14.06983734 35.52512238 14.09977722 36.22828674 C14.21909325 40.83608368 13.56550005 44.66763202 12 49 C7.41706093 53.71024293 2.48534132 55.08867371 -3.9375 55.3125 C-8.67077175 55.23408737 -11.78341412 54.06526655 -16 52 C-19.18490007 51.7226499 -19.18490007 51.7226499 -22 54 C-27.09334892 55.30748404 -32.14903518 55.22096686 -37.375 55.25 C-38.29539062 55.270625 -39.21578125 55.29125 -40.1640625 55.3125 C-45.97056477 55.34568001 -49.80158669 54.55219258 -55 52 C-58.18490007 51.7226499 -58.18490007 51.7226499 -61 54 C-67.15688213 55.81084769 -74.2361776 55.97487608 -80 53 C-80.144375 53.825 -80.28875 54.65 -80.4375 55.5 C-83.56086198 62.49633083 -90.33299165 67.25784419 -97.203125 70.390625 C-99.53602325 71.1817818 -101.56236307 71.30470462 -104 71 C-107 64.375 -107 64.375 -107 61 C-106.33613281 60.69707031 -105.67226562 60.39414063 -104.98828125 60.08203125 C-99.76260401 57.60269533 -95.78218096 55.39221014 -92 51 C-91.505 50.505 -91.505 50.505 -91 50 C-90.32883701 42.77209093 -91.22880317 36.6805638 -94 30 C-92.54462432 29.16151196 -91.08559627 28.32936066 -89.625 27.5 C-88.81289062 27.0359375 -88.00078125 26.571875 -87.1640625 26.09375 C-85 25 -85 25 -83 25 C-80.69 30.61 -78.38 36.22 -76 42 C-68.90307387 43.35444065 -68.90307387 43.35444065 -65.609375 42.4453125 C-63.17773317 40.26155649 -62.92074327 38.02749337 -62.25 34.875 C-62.00765625 33.77929688 -61.7653125 32.68359375 -61.515625 31.5546875 C-61.34546875 30.71164063 -61.1753125 29.86859375 -61 29 C-56.84228506 27.68461673 -54.1120703 28.65566932 -50 30 C-50.01160156 30.69867188 -50.02320313 31.39734375 -50.03515625 32.1171875 C-50.04417969 33.02726562 -50.05320313 33.93734375 -50.0625 34.875 C-50.07410156 35.77992187 -50.08570313 36.68484375 -50.09765625 37.6171875 C-50.16249257 40.0168585 -50.16249257 40.0168585 -49 42 C-44.82070402 43.23889074 -40.64313932 43.13348313 -36.3125 43.125 C-35.29833008 43.13080078 -35.29833008 43.13080078 -34.26367188 43.13671875 C-30.50647499 43.1808837 -30.50647499 43.1808837 -27 42 C-27.59444093 38.56291207 -28.79434184 36.75331426 -31.125 34.1875 C-31.74632813 33.49140625 -32.36765625 32.7953125 -33.0078125 32.078125 C-34.95874926 29.98804197 -34.95874926 29.98804197 -37.0546875 28.171875 C-41.89480477 23.85658972 -41.89480477 23.85658972 -42.4375 19.4375 C-39.32242288 11.98840254 -30.63653899 8.51028163 -23.6875 5.125 C-22.89021484 4.7228125 -22.09292969 4.320625 -21.27148438 3.90625 C-15.39473055 1 -15.39473055 1 -12 1 C-11.32845067 2.28913487 -10.66291141 3.58140204 -10 4.875 C-9.62875 5.59429688 -9.2575 6.31359375 -8.875 7.0546875 C-8 9 -8 9 -8 11 C-14.27 14.3 -20.54 17.6 -27 21 C-24.69 23.31 -22.38 25.62 -20 28 C-17.99551811 30.79805437 -16.1147213 33.62385363 -14.296875 36.54492188 C-11.95181764 40.13420931 -10.20991461 41.97121058 -6 43 C-2.16765785 42.82871956 -2.16765785 42.82871956 1 41 C1.01698933 37.96845465 0.97074045 34.96244596 0.87890625 31.93359375 C0.85529526 31.02497086 0.83168427 30.11634796 0.80735779 29.18019104 C0.73052149 26.26580954 0.64658363 23.35168056 0.5625 20.4375 C0.50929928 18.46680941 0.45655877 16.49610634 0.40429688 14.52539062 C0.27487948 9.68343255 0.13909094 4.84168946 0 0 Z " fill="#5270F6" transform="translate(153,7)"/>
<path d="M0 0 C3.20901684 9.08212312 6.53896499 19.10404454 2.3125 28.375 C0.06856407 32.36333841 -2.46526352 34.25169942 -6.87890625 35.5546875 C-12.55802405 36.74698848 -17.72389773 36.41193247 -23 34 C-26.78821033 33.71613531 -26.78821033 33.71613531 -29.125 35 C-33.39581686 36.48550152 -37.52220659 36.52253019 -42 36 C-42.99 35.443125 -43.98 34.88625 -45 34.3125 C-49.10837672 32.51508518 -51.09933297 33.76828341 -55.1875 35.2265625 C-60.06552748 36.56802006 -64.98355024 36.2327219 -70 36 C-70.17015625 36.88171875 -70.17015625 36.88171875 -70.34375 37.78125 C-71.71808587 42.42781412 -75.11328942 45.90975548 -79.2578125 48.3046875 C-84.22822576 50.55203607 -88.75557499 52.15407375 -94.25 52.0625 C-96.10625 52.0315625 -96.10625 52.0315625 -98 52 C-99.51059728 47.9402698 -100 45.45389333 -100 41 C-95.05 39.68 -90.1 38.36 -85 37 C-86.5675 36.62875 -88.135 36.2575 -89.75 35.875 C-93.43941281 34.75145361 -94.86207165 34.14121236 -97.625 31.3125 C-99.85092152 25.95005271 -99.61228677 21.38555398 -98 15.9375 C-95.91627638 11.04317243 -92.62448085 7.60127048 -88 5 C-83.62000824 3.87078337 -79.91890669 3.93992982 -75.9140625 6.15234375 C-69.96318093 10.88542888 -67.8558581 16.86208424 -66 24 C-61.91939265 23.86779185 -61.91939265 23.86779185 -58 23 C-55.21704412 19.10386177 -54.1944505 14.59404038 -53 10 C-51.54119891 10.14107747 -50.08296449 10.28802415 -48.625 10.4375 C-47.40683594 10.55931641 -47.40683594 10.55931641 -46.1640625 10.68359375 C-44 11 -44 11 -42 12 C-42 15.63 -42 19.26 -42 23 C-39.14221967 23.68493373 -39.14221967 23.68493373 -36 24 C-32.24084505 21.4938967 -32.27436746 20.18050197 -31.3125 15.875 C-31.06113281 14.77929688 -30.80976563 13.68359375 -30.55078125 12.5546875 C-30.36902344 11.71164063 -30.18726563 10.86859375 -30 10 C-25.72412002 9.91615922 -22.23641013 10.15271797 -18 11 C-18.33 14.63 -18.66 18.26 -19 22 C-14.83758971 24.08120514 -14.17733811 24.24191133 -10 23 C-8.68810584 21.90201339 -8.68810584 21.90201339 -8.75 19.1875 C-8.79643754 13.63821338 -10.53467123 8.31181678 -12 3 C-10.75336669 2.49166409 -9.50250613 1.99368855 -8.25 1.5 C-7.20585937 1.08234375 -7.20585937 1.08234375 -6.140625 0.65625 C-4 0 -4 0 0 0 Z M-85 17 C-87.28728734 18.83883881 -87.28728734 18.83883881 -87.125 21.625 C-87.08375 22.40875 -87.0425 23.1925 -87 24 C-84.69 24.33 -82.38 24.66 -80 25 C-79.67 24.34 -79.34 23.68 -79 23 C-79.93446535 20.96855359 -80.93224776 18.96466413 -82 17 C-82.99 17 -83.98 17 -85 17 Z " fill="#7FD857" transform="translate(372,26)"/>
<path d="M0 0 C4.787479 3.33042017 7.82199298 8.24069629 8.875 14 C9.69315749 23.02655725 8.98834288 31.81567153 3.1796875 39.13671875 C-5.10387756 47.13522185 -14.82267873 47.47869123 -25.78222656 47.42431641 C-33.57039753 47.20577828 -39.8880126 46.15606272 -45.625 40.5625 C-49.55369161 33.85098517 -50.2430551 27.75011848 -48.44921875 20.12890625 C-47.73072514 17.72825226 -46.96835856 15.35939597 -46.125 13 C-41.39470211 11.7831772 -39.36220229 12.5365103 -35.125 15 C-35.29 15.99 -35.455 16.98 -35.625 18 C-36.177897 22.12997301 -36.53524773 25.82914811 -36.125 30 C-32.86739299 33.43369388 -30.00619078 34.86618068 -25.26953125 35.203125 C-18.46122775 35.29890418 -13.27090856 35.01497401 -7.125 32 C-6.465 31.34 -5.805 30.68 -5.125 30 C-5.86105469 29.97421875 -6.59710938 29.9484375 -7.35546875 29.921875 C-17.16912324 29.35146444 -17.16912324 29.35146444 -21.125 25 C-23.25314289 20.74371422 -22.71811474 15.60934881 -22.125 11 C-20.10225415 6.18460504 -17.44836972 2.92917448 -13.1875 -0.0625 C-8.38874227 -1.53150747 -4.78206009 -1.53025923 0 0 Z M-8.125 10 C-9.7733633 11.75244247 -9.7733633 11.75244247 -11.125 14 C-10.90782648 16.20800528 -10.90782648 16.20800528 -10.125 18 C-7.815 18 -5.505 18 -3.125 18 C-3.30915432 15.05908413 -3.30915432 15.05908413 -4.125 12 C-6.07663118 10.56362302 -6.07663118 10.56362302 -8.125 10 Z " fill="#80D75A" transform="translate(259.125,28)"/>
<path d="M0 0 C7.42761108 1.28745259 13.79733168 9.06926082 18 15 C20.29417387 19.796909 20.83995447 24.76575739 20 30 C18.54724897 33.89202136 16.705461 36.93676281 13.1328125 39.1640625 C7.38561317 41.55686533 2.26407223 41.72910801 -3.6875 39.8125 C-7.85928511 37.52982513 -10.14835149 35.63854292 -11.63671875 31.02734375 C-12.94289696 24.23282042 -10.37461052 19.76371532 -7 14 C-5.18085757 10.81802176 -5 9.90743343 -5 6 C-3.55713083 3.75324658 -1.80620014 1.98682015 0 0 Z M3 17 C0.15549386 20.71973879 -0.3227506 23.37390802 0 28 C2.26601865 29.29042763 2.26601865 29.29042763 5 30 C7.32511472 28.73647948 7.32511472 28.73647948 9 27 C8.52651586 22.8333396 7.95303159 20.07115285 5 17 C4.34 17 3.68 17 3 17 Z " fill="#5271F8" transform="translate(27,21)"/>
<path d="M0 0 C3.96 0 7.92 0 12 0 C13.23791146 17.99392727 13.10202305 35.97488187 13 54 C9.37 54 5.74 54 2 54 C1.27527559 50.37637793 0.85994894 47.54289161 0.79467773 43.93432617 C0.77473251 42.95368698 0.75478729 41.97304779 0.73423767 40.96269226 C0.71752518 39.9166835 0.70081268 38.87067474 0.68359375 37.79296875 C0.66281265 36.71243729 0.64203156 35.63190582 0.62062073 34.51863098 C0.55535964 31.07498389 0.49634925 27.63126205 0.4375 24.1875 C0.39429249 21.84960172 0.35067749 19.51171093 0.30664062 17.17382812 C0.19970224 11.44929489 0.09836884 5.72468665 0 0 Z " fill="#5270F8" transform="translate(173,7)"/>
<path d="M0 0 C3.20901684 9.08212312 6.53896499 19.10404454 2.3125 28.375 C0.06856407 32.36333841 -2.46526352 34.25169942 -6.87890625 35.5546875 C-12.55802405 36.74698848 -17.72389773 36.41193247 -23 34 C-26.78821033 33.71613531 -26.78821033 33.71613531 -29.125 35 C-33.40095204 36.48728767 -37.51737999 36.5116817 -42 36 C-44.00751815 35.01517978 -46.00934459 34.01847486 -48 33 C-50.63813861 33.73854232 -50.63813861 33.73854232 -53 35 C-54.32 35 -55.64 35 -57 35 C-56.67 34.01 -56.34 33.02 -56 32 C-54.0390625 31.19140625 -54.0390625 31.19140625 -51.625 30.5625 C-48.48892926 29.62516884 -47.22792492 29.24173856 -44.9375 26.8125 C-44.628125 26.214375 -44.31875 25.61625 -44 25 C-44.33 24.34 -44.66 23.68 -45 23 C-45.1421988 19.16063232 -45.17754676 15.67983361 -44 12 C-43.34 12 -42.68 12 -42 12 C-42 15.63 -42 19.26 -42 23 C-39.14221967 23.68493373 -39.14221967 23.68493373 -36 24 C-32.24084505 21.4938967 -32.27436746 20.18050197 -31.3125 15.875 C-31.06113281 14.77929688 -30.80976563 13.68359375 -30.55078125 12.5546875 C-30.36902344 11.71164063 -30.18726563 10.86859375 -30 10 C-25.83861737 9.91840426 -22.0527516 10.01751476 -18 11 C-18.33 13.64 -18.66 16.28 -19 19 C-20.65 19.33 -22.3 19.66 -24 20 C-24 19.34 -24 18.68 -24 18 C-27.29520594 18.97965582 -28.68666014 19.45506111 -30.4375 22.5 C-32.47868967 25.76590347 -34.34882752 26.10749117 -38 27 C-38 27.66 -38 28.32 -38 29 C-39.32 28.67 -40.64 28.34 -42 28 C-41.67 29.65 -41.34 31.3 -41 33 C-40.34 33 -39.68 33 -39 33 C-39 33.66 -39 34.32 -39 35 C-33.73362579 33.86737431 -33.73362579 33.86737431 -28.8125 31.8125 C-26.23302265 30.65618257 -24.71275203 31.30604018 -22 32 C-16.69724304 33.22871434 -16.69724304 33.22871434 -12 31 C-11.505 31.99 -11.505 31.99 -11 33 C-8.05908413 32.81584568 -8.05908413 32.81584568 -5 32 C-3.56362302 30.04836882 -3.56362302 30.04836882 -3 28 C-3.99 28.99 -4.98 29.98 -6 31 C-5.67 29.35 -5.34 27.7 -5 26 C-5.66 25.67 -6.32 25.34 -7 25 C-6.34 24.67 -5.68 24.34 -5 24 C-4.39737901 21.7591427 -4.04392817 19.51429025 -3.66015625 17.2265625 C-2.90631523 14.68402177 -1.90544127 13.77942002 0 12 C0.72197162 9.39388923 0.72197162 9.39388923 1 7 C0.01 6.67 -0.98 6.34 -2 6 C-2.495 4.515 -2.495 4.515 -3 3 C-5.31 3.33 -7.62 3.66 -10 4 C-10.33 5.32 -10.66 6.64 -11 8 C-11.495 5.525 -11.495 5.525 -12 3 C-10.75336669 2.49166409 -9.50250613 1.99368855 -8.25 1.5 C-7.55390625 1.2215625 -6.8578125 0.943125 -6.140625 0.65625 C-4 0 -4 0 0 0 Z " fill="#85D262" transform="translate(372,26)"/>
<path d="M0 0 C3.63 0 7.26 0 11 0 C11.73324315 5.95760059 12.15046706 11.87301752 12.25 17.875 C12.28867188 19.75832031 12.28867188 19.75832031 12.328125 21.6796875 C11.98332882 25.16869649 11.38311143 26.50400434 9 29 C8.67 28.34 8.34 27.68 8 27 C7.34 27.66 6.68 28.32 6 29 C5.01 28.34 4.02 27.68 3 27 C2.7421875 24.65234375 2.7421875 24.65234375 2.875 21.9375 C2.94579646 20.29266222 2.99419277 18.64635043 3 17 C2.67 16.67 2.34 16.34 2 16 C1.78916687 14.25477017 1.63124159 12.50301267 1.5 10.75 C1.21858821 7.03134422 0.73750152 3.68750758 0 0 Z " fill="#5170FA" transform="translate(153,7)"/>
<path d="M0 0 C4.37859255 0.50522222 6.81651224 3.17827222 10 6 C6.42003353 6 5.76606183 5.07454637 3 3 C2.01 3 1.02 3 0 3 C-0.99 4.485 -0.99 4.485 -2 6 C-1.67 6.66 -1.34 7.32 -1 8 C-1.66 8 -2.32 8 -3 8 C-3 9.98 -3 11.96 -3 14 C-2.37351562 14.12117188 -1.74703125 14.24234375 -1.1015625 14.3671875 C0.12433594 14.61855469 0.12433594 14.61855469 1.375 14.875 C2.18710937 15.03742187 2.99921875 15.19984375 3.8359375 15.3671875 C6 16 6 16 8 18 C7.67 18.99 7.34 19.98 7 21 C6.34 20.01 5.68 19.02 5 18 C4.34 18 3.68 18 3 18 C1.11608215 21.26545761 0.50712033 24.28111761 0 28 C-1.32 28 -2.64 28 -4 28 C-4 26.68 -4 25.36 -4 24 C-4.66 24.33 -5.32 24.66 -6 25 C-6.33 23.68 -6.66 22.36 -7 21 C-7.66 21 -8.32 21 -9 21 C-9.33 24.96 -9.66 28.92 -10 33 C-12.48480136 29.27279796 -12.18248117 27.69273045 -11.625 23.4140625 C-10.75521879 20.05453257 -9.10757437 17.5929546 -7.05859375 14.82421875 C-5.66539193 12.77490788 -5.66539193 12.77490788 -6 9 C-4.64790708 5.50709329 -2.38255229 2.85906274 0 0 Z " fill="#5570E9" transform="translate(27,21)"/>
<path d="M0 0 C7.625 0.875 7.625 0.875 11 2 C10.8125 3.8125 10.8125 3.8125 10 6 C7.4375 7.75 7.4375 7.75 5 9 C5.33 10.32 5.66 11.64 6 13 C5.34 13 4.68 13 4 13 C4 14.32 4 15.64 4 17 C3.01 16.67 2.02 16.34 1 16 C0.67 16 0.34 16 0 16 C0 16.66 0 17.32 0 18 C1.32 18.33 2.64 18.66 4 19 C1.36 19 -1.28 19 -4 19 C-5.51059728 14.9402698 -6 12.45389333 -6 8 C-1.05 6.68 3.9 5.36 9 4 C6.03 3.01 3.06 2.02 0 1 C0 0.67 0 0.34 0 0 Z " fill="#81D45B" transform="translate(278,59)"/>
<path d="M0 0 C2.37948772 0.17625835 3.70225849 0.69719773 5.37890625 2.40234375 C6.62115486 3.90649092 7.81376056 5.45129851 9 7 C7.35 7 5.7 7 4 7 C4 7.66 4 8.32 4 9 C3.05125 9.309375 2.1025 9.61875 1.125 9.9375 C-1.86080408 10.87394742 -1.86080408 10.87394742 -4 12 C-6.03144641 11.06553465 -8.03533587 10.06775224 -10 9 C-8.89184175 5.78634109 -8.01470446 5.0085776 -5 3.25 C-2 2 -2 2 0 2 C0 1.34 0 0.68 0 0 Z " fill="#5171FC" transform="translate(126,15)"/>
<path d="M0 0 C2.9375 0.875 2.9375 0.875 4.9375 3.875 C4.75 6.9375 4.75 6.9375 3.9375 9.875 C0.9375 11.875 0.9375 11.875 -2.125 11.6875 C-5.0625 10.875 -5.0625 10.875 -7.0625 7.875 C-6.8550099 5.10846538 -6.35971306 3.34428377 -4.875 1 C-3.0625 -0.125 -3.0625 -0.125 0 0 Z " fill="#546CE6" transform="translate(96.0625,67.125)"/>
<path d="M0 0 C2.9375 0.8125 2.9375 0.8125 4.9375 3.8125 C4.38194444 9.36805556 4.38194444 9.36805556 2.9375 10.8125 C-2.9035596 11.18336093 -2.9035596 11.18336093 -5.0625 10.8125 C-7.0625 7.8125 -7.0625 7.8125 -6.875 4.75 C-5.72557438 0.5943843 -4.26983801 -0.26141865 0 0 Z " fill="#8BCA69" transform="translate(260.0625,10.1875)"/>
<path d="M0 0 C1.875 1.0625 1.875 1.0625 3 3 C2.55555556 9.44444444 2.55555556 9.44444444 1 11 C-5.26386233 11.57998725 -5.26386233 11.57998725 -8.0625 9.375 C-9 7 -9 7 -8.3125 3.8125 C-6.36664932 -0.35718004 -4.38228279 -0.42753978 0 0 Z " fill="#8ACA6A" transform="translate(249,10)"/>
<path d="M0 0 C0.66 0 1.32 0 2 0 C3.23791146 17.99392727 3.10202305 35.97488187 3 54 C-0.63 54 -4.26 54 -8 54 C-8 52.35 -8 50.7 -8 49 C-7.34 49 -6.68 49 -6 49 C-6 49.66 -6 50.32 -6 51 C-5.236875 51.144375 -4.47375 51.28875 -3.6875 51.4375 C-1 52 -1 52 2 53 C1.88146154 48.94301181 1.75719418 44.88624306 1.62768555 40.82958984 C1.5844545 39.45040622 1.54277134 38.07117315 1.50268555 36.69189453 C1.44469597 34.70593062 1.38062277 32.72014731 1.31640625 30.734375 C1.27974854 29.54038086 1.24309082 28.34638672 1.20532227 27.11621094 C1.03605878 24.54727029 0.63870559 22.46504447 0 20 C-0.07866959 18.41307361 -0.10784114 16.82321751 -0.09765625 15.234375 C-0.09443359 14.34492188 -0.09121094 13.45546875 -0.08789062 12.5390625 C-0.07951172 11.61867188 -0.07113281 10.69828125 -0.0625 9.75 C-0.05798828 8.81414063 -0.05347656 7.87828125 -0.04882812 6.9140625 C-0.03706918 4.60930959 -0.02063426 2.30468773 0 0 Z " fill="#596FD5" transform="translate(183,7)"/>
<path d="M0 0 C2.9375 0.8125 2.9375 0.8125 4.9375 2.8125 C5.1875 5.8125 5.1875 5.8125 4.9375 8.8125 C2.9375 10.8125 2.9375 10.8125 -0.5 11.1875 C-4.0625 10.8125 -4.0625 10.8125 -6.0625 9.0625 C-7.0625 6.8125 -7.0625 6.8125 -6.9375 4.75 C-5.235794 0.98193671 -4.31125447 -0.26395436 0 0 Z " fill="#556EE6" transform="translate(38.0625,4.1875)"/>
<path d="M0 0 C2 2 2 2 2.25 5 C2 8 2 8 0 10 C-3.5 10.25 -3.5 10.25 -7 10 C-9 8 -9 8 -9.375 5.0625 C-9 2 -9 2 -7.3125 0.0625 C-4.38550346 -1.28233625 -3.01415011 -1.03115662 0 0 Z " fill="#5270F2" transform="translate(28,5)"/>
<path d="M0 0 C0 0.66 0 1.32 0 2 C-1.11375 2.4125 -2.2275 2.825 -3.375 3.25 C-5.99320695 4.35546516 -6.83493089 4.74880787 -8.4375 7.1875 C-8.623125 7.785625 -8.80875 8.38375 -9 9 C-7.02 9.66 -5.04 10.32 -3 11 C-2.34 10.34 -1.68 9.68 -1 9 C1.625 8.875 1.625 8.875 4 9 C4 8.34 4 7.68 4 7 C5.65 7 7.3 7 9 7 C6.11964908 9.24027294 3.15133488 11.16172132 0 13 C0.33 13.66 0.66 14.32 1 15 C-6.54181818 14.38181818 -6.54181818 14.38181818 -8.875 12.4375 C-9.24625 11.963125 -9.6175 11.48875 -10 11 C-10.66 11 -11.32 11 -12 11 C-11.67 13.31 -11.34 15.62 -11 18 C-12.32 17.01 -13.64 16.02 -15 15 C-15 9.01372998 -15 9.01372998 -12.29296875 6.26953125 C-3.94907407 0 -3.94907407 0 0 0 Z " fill="#5972E5" transform="translate(126,15)"/>
<path d="M0 0 C0.66 0.33 1.32 0.66 2 1 C2.625 3.0625 2.625 3.0625 3 5 C3.99 5 4.98 5 6 5 C5.67 7.97 5.34 10.94 5 14 C1.535 15.485 1.535 15.485 -2 17 C-2.22084624 10.90218999 -2.01167675 5.78357065 0 0 Z " fill="#7ED855" transform="translate(241,34)"/>
<path d="M0 0 C3.66509567 2.99871464 4.64995138 6.5128124 5.296875 11.109375 C5.63708689 16.59056661 4.35572287 19.99253504 1.38671875 24.56640625 C0.92910156 25.03949219 0.47148438 25.51257813 0 26 C-0.99 26 -1.98 26 -3 26 C-3 25.34 -3 24.68 -3 24 C-2.01 24 -1.02 24 0 24 C0 21.69 0 19.38 0 17 C0.99 17 1.98 17 3 17 C1.6910428 13.87802522 1.6910428 13.87802522 -1 12 C-0.67 10.35 -0.34 8.7 0 7 C0.33 7.99 0.66 8.98 1 10 C1.66 10 2.32 10 3 10 C2.67 8.02 2.34 6.04 2 4 C1.34 4 0.68 4 0 4 C0 2.68 0 1.36 0 0 Z " fill="#546EE1" transform="translate(42,33)"/>
<path d="M0 0 C3.71888239 0.50712033 6.73454239 1.11608215 10 3 C9.835 3.99 9.67 4.98 9.5 6 C8.91808365 10.03243444 8.93214392 13.92863535 9 18 C9 18.99 9 19.98 9 21 C8.34 20.67 7.68 20.34 7 20 C6.55078125 17.1640625 6.55078125 17.1640625 6.3125 13.625 C6.22613281 12.46226563 6.13976562 11.29953125 6.05078125 10.1015625 C6 7 6 7 7 4 C5.02 4 3.04 4 1 4 C0.01 6.31 -0.98 8.62 -2 11 C-2.33 11 -2.66 11 -3 11 C-2.53199289 6.94393835 -2.12046792 3.53411321 0 0 Z " fill="#88CD6C" transform="translate(214,40)"/>
<path d="M0 0 C1.98 1.65 3.96 3.3 6 5 C5.67 5.66 5.34 6.32 5 7 C4.01 7 3.02 7 2 7 C1.690625 8.11375 1.38125 9.2275 1.0625 10.375 C0 14 0 14 -1 16 C-3.97 12.7 -6.94 9.4 -10 6 C-6.89448334 6 -5.64738916 6.5393715 -3 8 C-3 7.34 -3 6.68 -3 6 C-2.34 6 -1.68 6 -1 6 C-0.67 4.02 -0.34 2.04 0 0 Z " fill="#5570EE" transform="translate(127,30)"/>
<path d="M0 0 C2.58668776 2.58668776 2.34229306 3.96891021 2.5625 7.5625 C2.49797212 11.09416808 2.49797212 11.09416808 4 14 C4.01674294 15.85583223 3.96275607 17.71239363 3.87890625 19.56640625 C3.83056641 20.69111328 3.78222656 21.81582031 3.73242188 22.97460938 C3.67634766 24.15861328 3.62027344 25.34261719 3.5625 26.5625 C3.51029297 27.75037109 3.45808594 28.93824219 3.40429688 30.16210938 C3.2741434 33.10831066 3.1391636 36.05421276 3 39 C2.01 39.495 2.01 39.495 1 40 C0.67 26.8 0.34 13.6 0 0 Z " fill="#566EDC" transform="translate(153,10)"/>
<path d="M0 0 C2.03125 0.0859375 2.03125 0.0859375 4.5 0.375 C5.3146875 0.46523438 6.129375 0.55546875 6.96875 0.6484375 C9 1 9 1 10 2 C10.07234679 4.52309429 9.99635022 7.03148447 9.9375 9.5546875 C9.88454506 12.14011009 9.88454506 12.14011009 11 15 C10.01 14.67 9.02 14.34 8 14 C8 10.04 8 6.08 8 2 C5.36 2 2.72 2 0 2 C0.04640625 2.59167969 0.0928125 3.18335938 0.140625 3.79296875 C0.33847489 8.12446804 0.43654567 10.33153944 -2 14.0625 C-2.66 14.701875 -3.32 15.34125 -4 16 C-5.32 15.67 -6.64 15.34 -8 15 C-7.37480469 14.79503906 -6.74960938 14.59007812 -6.10546875 14.37890625 C-3.73006628 13.12368379 -3.73006628 13.12368379 -2.98828125 10.21484375 C-2.76527344 9.13332031 -2.54226562 8.05179688 -2.3125 6.9375 C-1.06193353 1.06193353 -1.06193353 1.06193353 0 0 Z " fill="#5C6FD6" transform="translate(93,35)"/>
<path d="M0 0 C0.33 0 0.66 0 1 0 C1.66 4.29 2.32 8.58 3 13 C3.66 13 4.32 13 5 13 C5.35191406 13.90492187 5.35191406 13.90492187 5.7109375 14.828125 C7.3153573 17.53132927 8.85058687 18.32315896 11.625 19.75 C12.44226563 20.17796875 13.25953125 20.6059375 14.1015625 21.046875 C14.72804687 21.36140625 15.35453125 21.6759375 16 22 C13.62501945 22.84290604 12.40904973 23.14620332 10 22.28515625 C4.80538597 19.1095426 1.60799257 15.98874155 0 10 C-0.28811578 6.63384734 -0.24838433 3.36698757 0 0 Z " fill="#8DCC71" transform="translate(210,51)"/>
<path d="M0 0 C1.905247 5.10334017 3.42589023 9.46342706 3 15 C0.8480563 11.77208445 0.79913557 10.71599191 1 7 C0.01 6.67 -0.98 6.34 -2 6 C-2.33 5.01 -2.66 4.02 -3 3 C-5.31 3.33 -7.62 3.66 -10 4 C-10.33 5.32 -10.66 6.64 -11 8 C-11.33 6.35 -11.66 4.7 -12 3 C-10.75336669 2.49166409 -9.50250613 1.99368855 -8.25 1.5 C-7.55390625 1.2215625 -6.8578125 0.943125 -6.140625 0.65625 C-4 0 -4 0 0 0 Z " fill="#8FC96E" transform="translate(372,26)"/>
<path d="M0 0 C2.14809171 3.22213757 2.29386153 4.27775401 2 8 C1 9 1 9 -2.0625 9.0625 C-3.031875 9.041875 -4.00125 9.02125 -5 9 C-5 6.69 -5 4.38 -5 2 C-3.35 2 -1.7 2 0 2 C0 1.34 0 0.68 0 0 Z " fill="#7FDA53" transform="translate(248,10)"/>
<path d="M0 0 C0 0.99 0 1.98 0 3 C-3.98825571 6.89098118 -7.72629654 9.2089309 -13 11 C-13.99 10.67 -14.98 10.34 -16 10 C-15.34 10 -14.68 10 -14 10 C-13.67 8.35 -13.34 6.7 -13 5 C-11.68 4.67 -10.36 4.34 -9 4 C-9 4.66 -9 5.32 -9 6 C-5.06326356 4.68775452 -2.77280706 3.08089673 0 0 Z " fill="#8ACF63" transform="translate(299,66)"/>
<path d="M0 0 C0.99 0.33 1.98 0.66 3 1 C2.649375 1.5775 2.29875 2.155 1.9375 2.75 C0.8275551 5.41386776 1.05410055 6.33428337 2 9 C2.33 9.99 2.66 10.98 3 12 C1.02 12.33 -0.96 12.66 -3 13 C-3 13.66 -3 14.32 -3 15 C-4.65 15 -6.3 15 -8 15 C-7.236875 14.38125 -6.47375 13.7625 -5.6875 13.125 C-2.01959373 9.53003505 -1.16074236 4.86001881 0 0 Z " fill="#87CD68" transform="translate(319,36)"/>
<path d="M0 0 C4.37859255 0.50522222 6.81651224 3.17827222 10 6 C6.42003353 6 5.76606183 5.07454637 3 3 C2.01 3 1.02 3 0 3 C-0.99 4.485 -0.99 4.485 -2 6 C-1.67 6.66 -1.34 7.32 -1 8 C-1.66 8 -2.32 8 -3 8 C-3 9.65 -3 11.3 -3 13 C-3.99 13 -4.98 13 -6 13 C-6 7.08428635 -3.72914602 4.47497523 0 0 Z " fill="#596DD7" transform="translate(27,21)"/>
<path d="M0 0 C0.67154933 1.28913487 1.33708859 2.58140204 2 3.875 C2.37125 4.59429688 2.7425 5.31359375 3.125 6.0546875 C4 8 4 8 4 10 C-1.75 13 -1.75 13 -4 13 C-4 12.34 -4 11.68 -4 11 C-3.01 11 -2.02 11 -1 11 C-1 8.36 -1 5.72 -1 3 C-2.98 3 -4.96 3 -7 3 C-3.375 0 -3.375 0 0 0 Z " fill="#576ED9" transform="translate(141,8)"/>
<path d="M0 0 C1.65 0.99 3.3 1.98 5 3 C4.67 4.65 4.34 6.3 4 8 C1.69 7.67 -0.62 7.34 -3 7 C-2.25 2.25 -2.25 2.25 0 0 Z " fill="#7DD855" transform="translate(258,12)"/>
<path d="M0 0 C0.33 0 0.66 0 1 0 C1.04254356 1.99954746 1.04080783 4.00041636 1 6 C0.67 6.33 0.34 6.66 0 7 C-0.07258946 9.18639453 -0.08373783 11.37500389 -0.0625 13.5625 C-0.05347656 14.76003906 -0.04445312 15.95757812 -0.03515625 17.19140625 C-0.02355469 18.11824219 -0.01195312 19.04507813 0 20 C-2.38227313 18.17233014 -2.95881499 17.2834498 -3.3984375 14.2578125 C-3.38683594 12.70707031 -3.38683594 12.70707031 -3.375 11.125 C-3.38273438 10.09632812 -3.39046875 9.06765625 -3.3984375 8.0078125 C-2.95370896 4.65054803 -1.97871818 2.72199303 0 0 Z " fill="#8BCC6A" transform="translate(240,34)"/>
<path d="M0 0 C0.33 0.66 0.66 1.32 1 2 C1.66 2 2.32 2 3 2 C3.66 5.96 4.32 9.92 5 14 C2 16 2 16 -0.1875 15.625 C-0.785625 15.41875 -1.38375 15.2125 -2 15 C-1.01 14.34 -0.02 13.68 1 13 C1.34404256 8.52744666 0.85660502 4.39010074 0 0 Z " fill="#88CD6A" transform="translate(362,35)"/>
<path d="M0 0 C0.66 0.33 1.32 0.66 2 1 C2.125 7.625 2.125 7.625 1 11 C-1.0625 11.6875 -1.0625 11.6875 -3 12 C-3.33 10.68 -3.66 9.36 -4 8 C-3.01 7.34 -2.02 6.68 -1 6 C-0.26656572 2.93443402 -0.26656572 2.93443402 0 0 Z " fill="#4D6CFC" transform="translate(30,50)"/>
<path d="M0 0 C0.33 0.99 0.66 1.98 1 3 C-1.65381366 7.3522544 -4.10842202 8.7771055 -9 10 C-8.26829419 8.65654015 -7.51394247 7.32539416 -6.75 6 C-6.33234375 5.2575 -5.9146875 4.515 -5.484375 3.75 C-4.74960938 2.88375 -4.74960938 2.88375 -4 2 C-2.68 2 -1.36 2 0 2 C0 1.34 0 0.68 0 0 Z " fill="#5770E1" transform="translate(165,51)"/>
<path d="M0 0 C0.66 0 1.32 0 2 0 C2 0.66 2 1.32 2 2 C2.763125 2.144375 3.52625 2.28875 4.3125 2.4375 C7 3 7 3 10 4 C10.33 3.01 10.66 2.02 11 1 C11 2.32 11 3.64 11 5 C7.37 5 3.74 5 0 5 C0 3.35 0 1.7 0 0 Z " fill="#5373E5" transform="translate(175,56)"/>
<path d="M0 0 C1.65 0 3.3 0 5 0 C4.43457996 1.32031595 3.84693528 2.6311301 3.25 3.9375 C2.76273438 5.03384766 2.76273438 5.03384766 2.265625 6.15234375 C1 8 1 8 -1.140625 8.75390625 C-2.06101563 8.87572266 -2.06101563 8.87572266 -3 9 C-3 8.34 -3 7.68 -3 7 C-2.01 7 -1.02 7 0 7 C0 4.69 0 2.38 0 0 Z " fill="#4F67E7" transform="translate(42,50)"/>
<path d="M0 0 C1.65 0.33 3.3 0.66 5 1 C5 1.66 5 2.32 5 3 C4.360625 3.226875 3.72125 3.45375 3.0625 3.6875 C0.72806339 4.85250896 0.72806339 4.85250896 0.25 7.625 C0.1675 8.40875 0.085 9.1925 0 10 C-0.66 9.67 -1.32 9.34 -2 9 C-2 7.35 -2 5.7 -2 4 C-2.66 3.67 -3.32 3.34 -4 3 C-3.01 2.67 -2.02 2.34 -1 2 C-0.67 1.34 -0.34 0.68 0 0 Z " fill="#85D068" transform="translate(285,40)"/>
<path d="M0 0 C2.625 1.625 2.625 1.625 3.625 3.625 C-0.10987777 3.1270163 -2.18737635 2.75008244 -5.375 0.625 C-7.67214187 0.59860171 -7.67214187 0.59860171 -10.0625 1 C-10.87074219 1.11085938 -11.67898437 1.22171875 -12.51171875 1.3359375 C-13.12660156 1.43132813 -13.74148437 1.52671875 -14.375 1.625 C-11.82216717 -3.48066566 -4.33874545 -1.76763703 0 0 Z " fill="#90CA67" transform="translate(259.375,28.375)"/>
<path d="M0 0 C0.33 0.66 0.66 1.32 1 2 C-1.8805451 6.5691405 -3.74020287 9.24673429 -9 11 C-9.66 10.34 -10.32 9.68 -11 9 C-10.37351563 8.60167969 -9.74703125 8.20335938 -9.1015625 7.79296875 C-8.28429688 7.26316406 -7.46703125 6.73335937 -6.625 6.1875 C-5.81289063 5.66542969 -5.00078125 5.14335938 -4.1640625 4.60546875 C-1.76649759 3.01562803 -1.76649759 3.01562803 0 0 Z " fill="#5B70DF" transform="translate(62,57)"/>
<path d="M0 0 C0.33 0.66 0.66 1.32 1 2 C3.02463255 2.65213292 3.02463255 2.65213292 5 3 C-0.12919186 5.10428384 -4.5610835 5.21755666 -10 5 C-10 4.67 -10 4.34 -10 4 C-8.906875 3.71125 -7.81375 3.4225 -6.6875 3.125 C-2.95986155 2.18106796 -2.95986155 2.18106796 0 0 Z " fill="#5369DD" transform="translate(88,57)"/>
<path d="M0 0 C2 3 2 3 2.9375 5.125 C3.91908645 7.34495729 3.91908645 7.34495729 7 8 C7 8.66 7 9.32 7 10 C5.02 10 3.04 10 1 10 C-0.1577506 6.52674819 -0.06866652 3.63932552 0 0 Z " fill="#596EE5" transform="translate(73,42)"/>
<path d="M0 0 C0.33 0.66 0.66 1.32 1 2 C-1.31 2 -3.62 2 -6 2 C-6.33 4.31 -6.66 6.62 -7 9 C-7.66 8.67 -8.32 8.34 -9 8 C-9.25 5.1875 -9.25 5.1875 -9 2 C-6.14065279 -1.28295421 -4.02254502 -1.41332663 0 0 Z " fill="#546AD6" transform="translate(28,5)"/>
<path d="M0 0 C4.29 0.66 8.58 1.32 13 2 C13 2.33 13 2.66 13 3 C9.04 3 5.08 3 1 3 C0.67 4.32 0.34 5.64 0 7 C-0.93423645 3.98968256 -1.04449911 3.13349732 0 0 Z " fill="#89CE67" transform="translate(301,59)"/>
<path d="M0 0 C1.65 0.33 3.3 0.66 5 1 C5.33 1.99 5.66 2.98 6 4 C7.65 3.67 9.3 3.34 11 3 C11 3.99 11 4.98 11 6 C7.26512223 5.5020163 5.18762365 5.12508244 2 3 C1.01 3 0.02 3 -1 3 C-0.67 2.01 -0.34 1.02 0 0 Z " fill="#566EE1" transform="translate(94,55)"/>
<path d="M0 0 C0.99 0.495 0.99 0.495 2 1 C2.5625 2.75 2.5625 2.75 3 5 C3.185625 5.9075 3.37125 6.815 3.5625 7.75 C3.706875 8.4925 3.85125 9.235 4 10 C5.98 10 7.96 10 10 10 C10 10.33 10 10.66 10 11 C7.36 11 4.72 11 2 11 C0.57741188 7.17679443 -0.24042276 4.08718695 0 0 Z " fill="#8CCA6E" transform="translate(272,67)"/>
<path d="M0 0 C-10.37357631 3.44419134 -10.37357631 3.44419134 -16 3 C-15.67 2.01 -15.34 1.02 -15 0 C-13.25093341 -0.19601608 -11.50068154 -0.38147403 -9.75 -0.5625 C-8.77546875 -0.66691406 -7.8009375 -0.77132812 -6.796875 -0.87890625 C-4.2368648 -0.98974468 -2.41851841 -0.77738092 0 0 Z " fill="#90CC72" transform="translate(256,72)"/>
<path d="M0 0 C1.65 0 3.3 0 5 0 C2.11964908 2.24027294 -0.84866512 4.16172132 -4 6 C-3.67 6.66 -3.34 7.32 -3 8 C-3.99 7.67 -4.98 7.34 -6 7 C-5.67 5.35 -5.34 3.7 -5 2 C-3.35 2 -1.7 2 0 2 C0 1.34 0 0.68 0 0 Z " fill="#586BD7" transform="translate(130,22)"/>
<path d="M0 0 C2.33333823 2.12121657 3.9148886 4.01594365 5 7 C4.625 9.25 4.625 9.25 4 11 C3.34 10.01 2.68 9.02 2 8 C1.34 8 0.68 8 0 8 C-0.33 7.01 -0.66 6.02 -1 5 C-0.34 5 0.32 5 1 5 C0.67 3.35 0.34 1.7 0 0 Z " fill="#8AD069" transform="translate(299,36)"/>
<path d="M0 0 C2.97 0 5.94 0 9 0 C9 0.33 9 0.66 9 1 C7.35 1 5.7 1 4 1 C3.34 2.65 2.68 4.3 2 6 C1.01 5.01 0.02 4.02 -1 3 C-0.67 2.01 -0.34 1.02 0 0 Z " fill="#8AD35F" transform="translate(284,31)"/>
<path d="M0 0 C0 0.66 0 1.32 0 2 C-3.36683915 4.43160605 -4.73350364 5 -9 5 C-8.67 4.01 -8.34 3.02 -8 2 C-5.27366306 0.89786379 -2.95855967 0 0 0 Z " fill="#8BCE6A" transform="translate(324,56)"/>
<path d="M0 0 C0.99 2.97 1.98 5.94 3 9 C-0.875 5.25 -0.875 5.25 -2 3 C-4.02463255 2.34786708 -4.02463255 2.34786708 -6 2 C-2.25 0 -2.25 0 0 0 Z " fill="#5972D2" transform="translate(70,32)"/>
<path d="M0 0 C2 2 2 2 2.125 5.125 C2.08375 6.07375 2.0425 7.0225 2 8 C1.34 8 0.68 8 0 8 C-0.33 7.01 -0.66 6.02 -1 5 C-1.66 4.67 -2.32 4.34 -3 4 C-2.67 3.01 -2.34 2.02 -2 1 C-1.34 0.67 -0.68 0.34 0 0 Z " fill="#4E6FFA" transform="translate(39,5)"/>
<path d="M0 0 C1.98 1.65 3.96 3.3 6 5 C5.67 5.66 5.34 6.32 5 7 C3.0625 6.3125 3.0625 6.3125 1 5 C0.25 2.375 0.25 2.375 0 0 Z " fill="#5672DC" transform="translate(127,30)"/>
<path d="M0 0 C0.66 0.33 1.32 0.66 2 1 C1 5 1 5 0 9 C-1.25664978 6.09399739 -2 4.20395416 -2 1 C-1.34 0.67 -0.68 0.34 0 0 Z " fill="#5C6ED3" transform="translate(48,67)"/>
</svg>
